<svg fill="#05071b" height="200px" width="200px" version="1.1" id="Layer_1" xmlns="http://www.w3.org/2000/svg" xmlns:xlink="http://www.w3.org/1999/xlink" viewBox="0 0 503.607 503.607" xml:space="preserve" transform="rotate(90)"><g id="SVGRepo_bgCarrier" stroke-width="0"></g><g id="SVGRepo_tracerCarrier" stroke-linecap="round" stroke-linejoin="round"></g><g id="SVGRepo_iconCarrier"> <g> <g> <g> <path d="M485.703,167.867h-31.341c-9.89,0-17.903,8.013-17.903,17.903v7.279H324.768l-17.349-46.273 c17.362-15.377,28.318-37.823,28.318-62.842C335.738,37.575,298.163,0,251.803,0s-83.934,37.575-83.934,83.934 c0,25.019,10.956,47.465,28.318,62.842l-17.349,46.273H67.148v-7.279c0-9.89-8.013-17.903-17.903-17.903H17.903 C8.013,167.867,0,175.881,0,185.77V334.62c0,9.89,8.013,17.903,17.903,17.903h31.341c9.89,0,17.903-8.013,17.903-17.903v-7.275 h16.787v58.754h-7.275c-9.89,0-17.903,8.013-17.903,17.903v31.341c0,9.89,8.013,17.903,17.903,17.903h7.277v32.457 c0,9.89,8.013,17.903,17.903,17.903h98.489c9.89,0,17.903-8.013,17.903-17.903v-32.457h7.277c9.89,0,17.903-8.013,17.903-17.903 v-31.341c0-9.89-8.013-17.903-17.903-17.903h-7.279v-58.754h67.148v58.754h-7.275c-9.89,0-17.903,8.013-17.903,17.903v31.341 c0,9.89,8.013,17.903,17.903,17.903h7.277v32.457c0,9.89,8.013,17.903,17.903,17.903h98.489c9.89,0,17.903-8.013,17.903-17.903 v-32.457h7.277c9.89,0,17.903-8.013,17.903-17.903v-31.341c0-9.89-8.013-17.903-17.903-17.903h-7.279v-58.754h16.787v7.275 c0,9.89,8.013,17.903,17.903,17.903h31.341c9.89,0,17.903-8.013,17.903-17.903V185.77 C503.607,175.881,495.593,167.867,485.703,167.867z M185.196,92.328h7.853c4.636,0,8.393-3.758,8.393-8.393 s-3.758-8.393-8.393-8.393h-7.853c4.132-33.123,32.363-58.754,66.607-58.754c34.243,0,62.474,25.631,66.607,58.754h-7.853 c-4.636,0-8.393,3.758-8.393,8.393s3.758,8.393,8.393,8.393h7.853c-3.789,30.371-27.842,54.424-58.213,58.213v-7.853 c0-4.636-3.758-8.393-8.393-8.393s-8.393,3.758-8.393,8.393v7.853C213.039,146.752,188.986,122.699,185.196,92.328z M209.235,159.792c13.519,5.298,27.873,8.076,42.568,8.076c14.695,0,29.049-2.778,42.568-8.076l12.469,33.257H196.767 L209.235,159.792z M50.361,334.62c0,0.619-0.498,1.116-1.116,1.116H17.903c-0.619,0-1.116-0.498-1.116-1.116V185.77 c0-0.619,0.498-1.116,1.116-1.116h31.341c0.619,0,1.116,0.498,1.116,1.116v15.672v117.508V334.62z M201.444,485.703 c0,0.619-0.498,1.116-1.116,1.116h-98.489c-0.619,0-1.116-0.498-1.116-1.116v-32.457h100.721V485.703z M226.625,404.002v31.341 c0,0.619-0.498,1.116-1.116,1.116h-15.671H92.33H76.659c-0.619,0-1.116-0.498-1.116-1.116v-31.341 c0-0.619,0.498-1.116,1.116-1.116h15.669h117.508h15.672C226.127,402.885,226.625,403.383,226.625,404.002z M402.887,485.703 c0,0.619-0.498,1.116-1.116,1.116h-98.489c-0.619,0-1.116-0.498-1.116-1.116v-32.457h100.721V485.703z M428.067,404.002v31.341 c0,0.619-0.498,1.116-1.116,1.116H411.28H293.772h-15.671c-0.619,0-1.116-0.498-1.116-1.116v-31.341 c0-0.619,0.498-1.116,1.116-1.116h15.669h117.508h15.672C427.57,402.885,428.067,403.383,428.067,404.002z M411.279,310.557 h-16.787c-4.636,0-8.393,3.758-8.393,8.393s3.758,8.393,8.393,8.393h8.393v58.754H302.164v-58.754h41.967 c4.636,0,8.393-3.758,8.393-8.393s-3.758-8.393-8.393-8.393H293.77h-83.934h-16.787c-4.636,0-8.393,3.758-8.393,8.393 s3.758,8.393,8.393,8.393h8.393v58.754H100.721v-58.754h25.18c4.636,0,8.393-3.758,8.393-8.393s-3.758-8.393-8.393-8.393H92.328 h-25.18V209.836h117.508h134.295h117.508v100.721H411.279z M486.82,334.62c0,0.619-0.498,1.116-1.116,1.116h-31.341 c-0.619,0-1.116-0.498-1.116-1.116v-15.669V201.443V185.77c0-0.619,0.498-1.116,1.116-1.116h31.341 c0.619,0,1.116,0.498,1.116,1.116V334.62z"></path> <path d="M251.803,109.115c13.902,0,25.18-11.278,25.18-25.18c0-10.958-7.01-20.282-16.787-23.741v-9.833 c0-4.636-3.758-8.393-8.393-8.393s-8.393,3.758-8.393,8.393v9.833c-9.777,3.459-16.787,12.782-16.787,23.741 C226.623,97.836,237.901,109.115,251.803,109.115z M251.803,75.541c4.631,0,8.393,3.763,8.393,8.393s-3.763,8.393-8.393,8.393 s-8.393-3.763-8.393-8.393S247.172,75.541,251.803,75.541z"></path> </g> </g> </g> </g></svg>